<?xml version="1.0" encoding="utf-8"?>
<!-- Generator: Adobe Illustrator 16.0.0, SVG Export Plug-In . SVG Version: 6.00 Build 0)  -->
<!DOCTYPE svg PUBLIC "-//W3C//DTD SVG 1.1//EN" "http://www.w3.org/Graphics/SVG/1.1/DTD/svg11.dtd">
<svg version="1.1" id="Layer_1" xmlns="http://www.w3.org/2000/svg" xmlns:xlink="http://www.w3.org/1999/xlink" x="0px" y="0px"
	 width="15.203px" height="14.156px" viewBox="0 0 15.203 14.156" enable-background="new 0 0 15.203 14.156" xml:space="preserve">
<path fill-rule="evenodd" clip-rule="evenodd" fill="#33669A" d="M1.101,8.104h10.742l-4.182,4.225c-0.396,0.4-0.396,1.049,0,1.45
	c0.396,0.4,1.039,0.4,1.435,0l5.741-5.799c0.243-0.246,0.319-0.583,0.263-0.901c0.056-0.318-0.02-0.655-0.263-0.9L9.096,0.379
	c-0.396-0.4-1.039-0.4-1.435,0c-0.396,0.4-0.396,1.05,0,1.45l4.182,4.225H1.101c-0.561,0-1.015,0.459-1.015,1.025
	C0.086,7.645,0.541,8.104,1.101,8.104z"/>
</svg>
