<?xml version="1.0" encoding="utf-8"?>
<!-- Generator: Adobe Illustrator 19.0.1, SVG Export Plug-In . SVG Version: 6.00 Build 0)  -->
<svg version="1.1" id="Layer_1" xmlns="http://www.w3.org/2000/svg" xmlns:xlink="http://www.w3.org/1999/xlink" x="0px" y="0px"
	 viewBox="0 0 13 13" style="enable-background:new 0 0 13 13;" xml:space="preserve">
<style type="text/css">
	.st0{fill:#DBBA2C;}
</style>
<path class="st0" d="M6.5,0C2.9,0,0,2.9,0,6.5C0,10.1,2.9,13,6.5,13c3.6,0,6.5-2.9,6.5-6.5C13,2.9,10.1,0,6.5,0z M6.5,10.3
	c-0.7,0-1.3-0.6-1.3-1.3c0-0.7,0.6-1.3,1.3-1.3c0.7,0,1.3,0.6,1.3,1.3C7.8,9.7,7.2,10.3,6.5,10.3z M7.3,7H5.7L5.2,3.2
	c0-0.3,0.2-0.5,0.4-0.5h1.7c0.2,0,0.4,0.2,0.4,0.5L7.3,7z"/>
</svg>
