<?xml version="1.0" encoding="utf-8"?>
<!-- Generator: Adobe Illustrator 16.0.0, SVG Export Plug-In . SVG Version: 6.00 Build 0)  -->
<!DOCTYPE svg PUBLIC "-//W3C//DTD SVG 1.1//EN" "http://www.w3.org/Graphics/SVG/1.1/DTD/svg11.dtd">
<svg version="1.1" id="Layer_1" xmlns="http://www.w3.org/2000/svg" xmlns:xlink="http://www.w3.org/1999/xlink" x="0px" y="0px"
	 width="16.188px" height="16px" viewBox="0 0 16.188 16" enable-background="new 0 0 16.188 16" xml:space="preserve">
<g>
	<g>
		<path fill="#FFFFFF" d="M6.021,12.338c-0.741,0-1.341,0.601-1.341,1.341c0,0.742,0.601,1.342,1.341,1.342
			c0.74,0,1.341-0.6,1.341-1.342C7.362,12.939,6.761,12.338,6.021,12.338z"/>
		<path fill="#FFFFFF" d="M11.875,12.338c-0.741,0-1.341,0.601-1.341,1.341c0,0.742,0.6,1.342,1.341,1.342
			c0.741,0,1.342-0.6,1.342-1.342C13.216,12.939,12.615,12.338,11.875,12.338z"/>
		<path fill="#FFFFFF" d="M15.244,4.986l-7.43-0.001c-0.372,0-0.673,0.301-0.673,0.673c0,0.371,0.301,0.674,0.673,0.674l6.574-0.001
			l-0.417,1.41L7.288,7.743c-0.345,0-0.624,0.279-0.624,0.624s0.279,0.624,0.624,0.624l6.314,0.002l-0.392,1.32H5.677l-0.5-3.983
			L4.701,2.448C4.662,2.143,4.439,1.89,4.139,1.813L0.962,1.002C0.559,0.899,0.148,1.144,0.045,1.546
			C-0.057,1.95,0.186,2.359,0.589,2.463l2.68,0.685l1.044,7.831c0,0,0.035,0.914,0.865,0.914h8.326c0.697,0,0.832-0.729,0.832-0.729
			l1.65-4.898C15.986,6.265,16.475,4.986,15.244,4.986z"/>
	</g>
</g>
</svg>
