<?xml version="1.0" encoding="utf-8"?>
<!-- Generator: Adobe Illustrator 16.0.0, SVG Export Plug-In . SVG Version: 6.00 Build 0)  -->
<!DOCTYPE svg PUBLIC "-//W3C//DTD SVG 1.1//EN" "http://www.w3.org/Graphics/SVG/1.1/DTD/svg11.dtd">
<svg version="1.1" id="Layer_1" xmlns="http://www.w3.org/2000/svg" xmlns:xlink="http://www.w3.org/1999/xlink" x="0px" y="0px"
	 width="14px" height="10px" viewBox="0 0 14 10" enable-background="new 0 0 14 10" xml:space="preserve">
<g>
	<path fill="#DDBA3A" d="M7.017,5.997H7.02c0.106,0,0.21-0.033,0.295-0.092L7.337,5.89c0.005-0.004,0.01-0.007,0.016-0.011
		L7.62,5.644l6.365-5.61C13.972,0.014,13.949,0,13.926,0H0.074C0.056,0,0.041,0.006,0.029,0.017l6.658,5.866
		C6.772,5.955,6.892,5.997,7.017,5.997z M0,0.796v8.316l4.771-4.117L0,0.796z M9.234,5.023L14,9.114V0.823L9.234,5.023z
		 M7.719,6.358C7.529,6.525,7.28,6.616,7.02,6.616c-0.262,0-0.51-0.091-0.7-0.257L5.228,5.397L0,9.907v0.015
		C0,9.964,0.035,10,0.075,10h13.851C13.965,10,14,9.964,14,9.922V9.908L8.777,5.426L7.719,6.358z"/>
</g>
</svg>
