<?xml version="1.0" encoding="utf-8"?>
<!-- Generator: Adobe Illustrator 16.0.0, SVG Export Plug-In . SVG Version: 6.00 Build 0)  -->
<!DOCTYPE svg PUBLIC "-//W3C//DTD SVG 1.1//EN" "http://www.w3.org/Graphics/SVG/1.1/DTD/svg11.dtd">
<svg version="1.1" id="Layer_1" xmlns="http://www.w3.org/2000/svg" xmlns:xlink="http://www.w3.org/1999/xlink" x="0px" y="0px"
	 width="32px" height="32px" viewBox="0 0 32 32" enable-background="new 0 0 32 32" xml:space="preserve">
<g>
	<g>
		<path fill="#898989" d="M16,2.849c-5.252,0-9.526,4.274-9.526,9.527c0,6.518,8.525,16.087,8.888,16.492
			c0.341,0.379,0.936,0.379,1.276,0c0.363-0.405,8.888-9.975,8.888-16.492C25.526,7.123,21.252,2.849,16,2.849z M16,17.167
			c-2.643,0-4.792-2.15-4.792-4.791c0-2.645,2.149-4.793,4.792-4.793s4.792,2.148,4.792,4.793
			C20.792,15.017,18.643,17.167,16,17.167z"/>
	</g>
</g>
</svg>
