<?xml version="1.0" encoding="utf-8"?>
<!-- Generator: Adobe Illustrator 16.0.0, SVG Export Plug-In . SVG Version: 6.00 Build 0)  -->
<!DOCTYPE svg PUBLIC "-//W3C//DTD SVG 1.1//EN" "http://www.w3.org/Graphics/SVG/1.1/DTD/svg11.dtd">
<svg version="1.1" xmlns="http://www.w3.org/2000/svg" xmlns:xlink="http://www.w3.org/1999/xlink" x="0px" y="0px" width="32px"
	 height="32px" viewBox="0 0 32 32" enable-background="new 0 0 32 32" xml:space="preserve">
<g id="Layer_1">
</g>
<g id="Layer_2">
	<g>
		<g id="call">
			<path fill="#898989" d="M11.81,15.023c1.138,2.275,3.088,4.146,5.363,5.363L18.96,18.6c0.244-0.242,0.567-0.324,0.813-0.162
				c0.895,0.326,1.869,0.487,2.926,0.487c0.486,0,0.813,0.325,0.813,0.813V22.5c0,0.486-0.326,0.813-0.813,0.813
				c-7.638,0-13.813-6.174-13.813-13.813c0-0.486,0.325-0.813,0.813-0.813h2.844c0.488,0,0.813,0.324,0.813,0.813
				c0,0.975,0.163,1.95,0.487,2.925c0.082,0.244,0,0.569-0.162,0.813L11.81,15.023z"/>
		</g>
	</g>
	<circle fill="none" stroke="#898989" stroke-miterlimit="10" cx="16.198" cy="16" r="13.406"/>
</g>
</svg>
