<?xml version="1.0" encoding="utf-8"?>
<!-- Generator: Adobe Illustrator 16.0.0, SVG Export Plug-In . SVG Version: 6.00 Build 0)  -->
<!DOCTYPE svg PUBLIC "-//W3C//DTD SVG 1.1//EN" "http://www.w3.org/Graphics/SVG/1.1/DTD/svg11.dtd">
<svg version="1.1" id="Layer_1" xmlns="http://www.w3.org/2000/svg" xmlns:xlink="http://www.w3.org/1999/xlink" x="0px" y="0px"
	 width="32px" height="32.031px" viewBox="0 0 32 32.031" enable-background="new 0 0 32 32.031" xml:space="preserve">
<g>
	<g>
		<path fill="#007CFF" d="M12.24,13.52c-0.134-0.144-0.306-0.215-0.517-0.215c-0.21,0-0.378,0.072-0.502,0.215l-1.736,1.723
			c-0.135,0.135-0.201,0.301-0.201,0.502s0.066,0.373,0.201,0.518l5.841,5.854c0.114,0.115,0.258,0.183,0.43,0.201
			c0.02,0.01,0.048,0.014,0.087,0.014c0.191,0,0.368-0.07,0.531-0.215l10.475-10.475c0.134-0.144,0.201-0.316,0.201-0.518
			s-0.067-0.373-0.201-0.517l-1.722-1.723c-0.143-0.143-0.316-0.215-0.517-0.215s-0.373,0.072-0.516,0.215l-8.237,8.252L12.24,13.52
			z"/>
		<path fill="#007CFF" d="M26.203,14.151l-8.882,8.883c-0.373,0.392-0.847,0.589-1.42,0.589h-0.403l-0.086-0.059
			c-0.354-0.086-0.674-0.264-0.961-0.53L8.625,17.18c-0.402-0.401-0.603-0.88-0.603-1.436c0-0.564,0.201-1.038,0.603-1.42
			l1.722-1.736c0.393-0.393,0.87-0.59,1.435-0.59c0.546,0,1.019,0.201,1.421,0.604l2.698,2.697l5.71-5.725l-3.802-3.804
			c-0.507-0.506-1.119-0.76-1.837-0.76c-0.718,0-1.329,0.254-1.836,0.76l-8.424,8.425c-0.508,0.506-0.761,1.119-0.761,1.837
			c0,0.716,0.253,1.328,0.761,1.835l8.424,8.425c0.507,0.506,1.122,0.76,1.843,0.76c0.723,0,1.333-0.254,1.831-0.76l8.423-8.425
			c0.508-0.507,0.761-1.119,0.761-1.835c0-0.718-0.253-1.331-0.761-1.838L26.203,14.151z"/>
	</g>
</g>
</svg>
