<?xml version="1.0" encoding="utf-8"?>
<!-- Generator: Adobe Illustrator 16.0.0, SVG Export Plug-In . SVG Version: 6.00 Build 0)  -->
<!DOCTYPE svg PUBLIC "-//W3C//DTD SVG 1.1//EN" "http://www.w3.org/Graphics/SVG/1.1/DTD/svg11.dtd">
<svg version="1.1" id="Layer_1" xmlns="http://www.w3.org/2000/svg" xmlns:xlink="http://www.w3.org/1999/xlink" x="0px" y="0px"
	 width="32.083px" height="32px" viewBox="0 0 32.083 32" enable-background="new 0 0 32.083 32" xml:space="preserve">
<g>
	<g>
		<path fill="#E92100" d="M15.169,8.219h-3.821c-1.703,0-2.881,0.373-3.941,1.25c-0.835,0.719-1.333,1.765-1.333,2.798
			c0,1.591,1.212,3.28,3.46,3.28c0.216,0,0.455-0.021,0.667-0.041l-0.031,0.075c-0.09,0.217-0.176,0.42-0.176,0.739
			c0,0.62,0.299,1.003,0.589,1.373l0.036,0.046l-0.064,0.005c-0.928,0.063-2.655,0.182-3.917,0.958
			c-1.491,0.885-1.606,2.175-1.606,2.549c0,1.486,1.386,2.987,4.482,2.987c3.6,0,5.484-1.987,5.484-3.948
			c0-1.45-0.851-2.167-1.754-2.928l-0.761-0.593c-0.235-0.195-0.529-0.438-0.529-0.888c0-0.441,0.293-0.734,0.552-0.991l0.027-0.026
			c0.822-0.647,1.755-1.383,1.755-2.973c0-1.597-0.999-2.423-1.479-2.82h1.268c0.016,0,0.031-0.004,0.044-0.012l1.093-0.688
			c0.031-0.021,0.045-0.058,0.035-0.094C15.238,8.242,15.206,8.219,15.169,8.219z M10.536,23.362c-2.194,0-3.669-1.024-3.669-2.551
			c0-0.996,0.603-1.719,1.792-2.148c0.951-0.321,2.178-0.337,2.191-0.337c0.208,0,0.312,0,0.478,0.021
			c1.536,1.093,2.274,1.668,2.274,2.76C13.601,22.498,12.427,23.362,10.536,23.362z M10.515,14.961
			c-1.841,0-2.605-2.419-2.605-3.717c0-0.659,0.15-1.164,0.458-1.546c0.334-0.42,0.908-0.689,1.459-0.689
			c1.691,0,2.626,2.271,2.626,3.843c0,0.248,0,1.001-0.521,1.526C11.583,14.727,11.013,14.961,10.515,14.961z"/>
		<path fill="#E92100" d="M24.802,13.28h-2.9v-2.889c0-0.066-0.054-0.119-0.119-0.119h-1.248c-0.065,0-0.119,0.053-0.119,0.119
			v2.889H17.53c-0.066,0-0.119,0.057-0.119,0.12v1.264c0,0.066,0.053,0.12,0.119,0.12h2.886v2.907c0,0.065,0.054,0.122,0.119,0.122
			h1.248c0.065,0,0.119-0.057,0.119-0.122v-2.908h2.9c0.065,0,0.119-0.053,0.119-0.12V13.4C24.921,13.333,24.868,13.28,24.802,13.28
			z"/>
	</g>
</g>
</svg>
