<?xml version="1.0" encoding="utf-8"?>
<!-- Generator: Adobe Illustrator 16.0.0, SVG Export Plug-In . SVG Version: 6.00 Build 0)  -->
<!DOCTYPE svg PUBLIC "-//W3C//DTD SVG 1.1//EN" "http://www.w3.org/Graphics/SVG/1.1/DTD/svg11.dtd">
<svg version="1.1" id="Layer_1" xmlns="http://www.w3.org/2000/svg" xmlns:xlink="http://www.w3.org/1999/xlink" x="0px" y="0px"
	 width="31.875px" height="32px" viewBox="0 0 31.875 32" enable-background="new 0 0 31.875 32" xml:space="preserve">
<g>
	<path fill="#C9A521" d="M10.195,8.104h11.816c1.122,0,2.04,0.83,2.04,2.04V21.96c0,1.21-0.918,2.04-2.04,2.04H10.195
		c-1.122,0-2.04-0.83-2.04-2.04V10.144C8.155,8.934,9.073,8.104,10.195,8.104L10.195,8.104z M19.734,9.869
		c-0.394,0-0.714,0.323-0.714,0.716v1.714c0,0.393,0.321,0.715,0.714,0.715h1.798c0.394,0,0.715-0.322,0.715-0.715v-1.714
		c0-0.393-0.321-0.716-0.715-0.716H19.734L19.734,9.869z M22.255,14.825h-1.4c0.133,0.434,0.204,0.891,0.204,1.365
		c0,2.644-2.213,4.787-4.941,4.787s-4.94-2.144-4.94-4.787c0-0.475,0.071-0.932,0.203-1.365h-1.46v6.716
		c0,0.349,0.285,0.633,0.632,0.633h11.07c0.348,0,0.632-0.284,0.632-0.633V14.825L22.255,14.825z M16.118,12.925
		c-1.763,0-3.193,1.383-3.193,3.093c0,1.708,1.43,3.094,3.193,3.094c1.763,0,3.193-1.386,3.193-3.094
		C19.311,14.308,17.881,12.925,16.118,12.925z"/>
</g>
</svg>
