<?xml version="1.0" encoding="utf-8"?>
<!-- Generator: Adobe Illustrator 16.0.0, SVG Export Plug-In . SVG Version: 6.00 Build 0)  -->
<!DOCTYPE svg PUBLIC "-//W3C//DTD SVG 1.1//EN" "http://www.w3.org/Graphics/SVG/1.1/DTD/svg11.dtd">
<svg version="1.1" id="Layer_1" xmlns="http://www.w3.org/2000/svg" xmlns:xlink="http://www.w3.org/1999/xlink" x="0px" y="0px"
	 width="31.996px" height="31.996px" viewBox="0 0 31.996 31.996" enable-background="new 0 0 31.996 31.996" xml:space="preserve">
<g>
	<g>
		<path fill="#3177E2" d="M21.527,24.52c-1.426,0.974-2.937,1.455-4.787,1.666c-4.527,0.518-8.742-2.354-9.348-7.653
			c-0.65-5.687,2.734-11.051,8.863-11.752c4.803-0.55,8.418,2.448,8.945,7.056c0.474,4.142-1.567,6.837-4.161,7.134
			c-1.106,0.127-2.211-0.503-2.322-2.196l-0.11,0.012c-0.78,1.74-1.958,2.687-3.614,2.876c-1.601,0.184-3.13-0.958-3.379-3.138
			c-0.392-3.423,1.956-6.852,5.792-7.29c1.187-0.135,2.264-0.008,3.019,0.243l-0.365,5.1c-0.173,2.148,0.267,3.077,1.182,3
			c1.411-0.136,2.77-2.191,2.403-5.394c-0.458-4.002-3.188-6.598-7.468-6.108c-4.497,0.514-7.873,4.508-7.231,10.111
			c0.527,4.61,3.862,7.109,7.946,6.643c1.573-0.181,2.999-0.682,4.059-1.445L21.527,24.52z M18.646,12.768
			c-0.286-0.048-0.769-0.105-1.403-0.033c-2.429,0.278-4.127,2.794-3.821,5.47c0.139,1.216,0.848,2.03,2.063,1.891
			c1.601-0.183,2.829-2.394,2.937-4.142L18.646,12.768z"/>
	</g>
</g>
</svg>
