<?xml version="1.0" encoding="utf-8"?>
<!-- Generator: Adobe Illustrator 16.0.0, SVG Export Plug-In . SVG Version: 6.00 Build 0)  -->
<!DOCTYPE svg PUBLIC "-//W3C//DTD SVG 1.1//EN" "http://www.w3.org/Graphics/SVG/1.1/DTD/svg11.dtd">
<svg version="1.1" id="Layer_1" xmlns="http://www.w3.org/2000/svg" xmlns:xlink="http://www.w3.org/1999/xlink" x="0px" y="0px"
	 width="32px" height="32.063px" viewBox="0 0 32 32.063" enable-background="new 0 0 32 32.063" xml:space="preserve">
<g>
	<g>
		<path fill="#FF9100" d="M14.749,19.928c-1.466-0.153-2.789-0.515-3.921-1.399c-0.141-0.11-0.285-0.217-0.414-0.34
			c-0.496-0.476-0.545-1.021-0.153-1.582c0.335-0.481,0.898-0.609,1.483-0.334c0.113,0.055,0.222,0.121,0.325,0.193
			c2.11,1.448,5.008,1.489,7.125,0.064c0.21-0.161,0.435-0.292,0.694-0.359c0.505-0.129,0.977,0.056,1.248,0.499
			c0.31,0.504,0.306,0.997-0.076,1.389c-0.585,0.601-1.29,1.036-2.072,1.34c-0.74,0.287-1.55,0.432-2.353,0.527
			c0.121,0.132,0.178,0.196,0.254,0.272c1.089,1.095,2.183,2.184,3.269,3.281c0.37,0.375,0.447,0.839,0.244,1.272
			c-0.223,0.477-0.721,0.789-1.21,0.756c-0.31-0.021-0.551-0.176-0.766-0.392c-0.822-0.827-1.659-1.639-2.465-2.481
			c-0.234-0.246-0.347-0.199-0.553,0.014c-0.828,0.852-1.667,1.689-2.513,2.523c-0.38,0.374-0.832,0.441-1.272,0.228
			c-0.468-0.227-0.766-0.704-0.743-1.185c0.016-0.325,0.176-0.573,0.398-0.795c1.078-1.077,2.153-2.156,3.229-3.234
			C14.579,20.114,14.645,20.038,14.749,19.928z"/>
		<path fill="#FF9100" d="M15.641,16.179C13.025,16.17,10.88,14,10.896,11.381c0.015-2.649,2.162-4.783,4.803-4.776
			c2.647,0.007,4.772,2.173,4.758,4.849C20.444,14.067,18.284,16.188,15.641,16.179z M18.019,11.387
			c-0.004-1.3-1.041-2.336-2.338-2.337c-1.31-0.002-2.355,1.053-2.345,2.366c0.01,1.295,1.055,2.323,2.356,2.319
			C16.99,13.73,18.023,12.688,18.019,11.387z"/>
	</g>
</g>
</svg>
