<?xml version="1.0" encoding="utf-8"?>
<!-- Generator: Adobe Illustrator 16.0.0, SVG Export Plug-In . SVG Version: 6.00 Build 0)  -->
<!DOCTYPE svg PUBLIC "-//W3C//DTD SVG 1.1//EN" "http://www.w3.org/Graphics/SVG/1.1/DTD/svg11.dtd">
<svg version="1.1" id="Layer_1" xmlns="http://www.w3.org/2000/svg" xmlns:xlink="http://www.w3.org/1999/xlink" x="0px" y="0px"
	 width="31.917px" height="32px" viewBox="0 0 31.917 32" enable-background="new 0 0 31.917 32" xml:space="preserve">
<path fill="#03A9F4" d="M26.284,10.392c-0.795,0.256-1.628,0.396-2.485,0.417c0.923-0.432,1.669-1.18,2.081-2.132
	c-0.859,0.4-1.791,0.651-2.764,0.745c-0.687-0.897-1.733-1.518-2.931-1.639c-2.323-0.236-4.385,1.46-4.62,3.772
	c-0.034,0.332-0.038,0.654,0.001,0.966c-3.472-0.523-6.389-2.51-8.204-5.268c-0.426,0.592-0.711,1.29-0.79,2.064
	c-0.147,1.453,0.47,2.817,1.51,3.676c-0.673-0.08-1.314-0.344-1.844-0.708c-0.001,0.012-0.003,0.028-0.004,0.044
	c-0.207,2.04,1.075,3.882,2.943,4.466c-0.351,0.059-0.728,0.065-1.114,0.026c-0.269-0.027-0.538-0.07-0.787-0.151
	c0.375,1.717,1.794,3.094,3.625,3.32c-1.542,0.973-3.422,1.461-5.385,1.262c-0.344-0.035-0.673-0.083-0.998-0.159
	c1.737,1.388,3.871,2.295,6.247,2.536c7.722,0.783,12.592-5.185,13.155-10.729c0.019-0.186,0.031-0.366,0.04-0.545
	C24.853,11.85,25.627,11.183,26.284,10.392z"/>
</svg>
