<?xml version="1.0" encoding="utf-8"?>
<!-- Generator: Adobe Illustrator 16.0.0, SVG Export Plug-In . SVG Version: 6.00 Build 0)  -->
<!DOCTYPE svg PUBLIC "-//W3C//DTD SVG 1.1//EN" "http://www.w3.org/Graphics/SVG/1.1/DTD/svg11.dtd">
<svg version="1.1" id="Layer_1" xmlns="http://www.w3.org/2000/svg" xmlns:xlink="http://www.w3.org/1999/xlink" x="0px" y="0px"
	 width="32.125px" height="32px" viewBox="0 0 32.125 32" enable-background="new 0 0 32.125 32" xml:space="preserve">
<g>
	<path fill="#467FE5" d="M11.085,22.105V9.894h4.587c1.532,0,2.721,0.28,3.566,0.841c0.845,0.561,1.268,1.4,1.268,2.522
		c0,0.571-0.165,1.081-0.494,1.528c-0.33,0.449-0.795,0.789-1.396,1.022c0.723,0.188,1.286,0.54,1.692,1.054
		c0.403,0.517,0.606,1.105,0.606,1.768c0,1.145-0.396,2.01-1.187,2.598c-0.793,0.586-1.896,0.879-3.314,0.879H11.085L11.085,22.105z
		 M13.202,15.052h2.481c0.895,0,1.57-0.139,2.025-0.415c0.455-0.277,0.683-0.695,0.683-1.256c0-0.575-0.229-1.01-0.688-1.301
		c-0.458-0.292-1.136-0.438-2.03-0.438h-2.471L13.202,15.052L13.202,15.052z M13.202,16.756v3.635h3.212
		c0.779,0,1.371-0.156,1.771-0.469c0.401-0.313,0.603-0.763,0.603-1.35c0-0.579-0.201-1.026-0.603-1.344
		c-0.4-0.314-0.992-0.474-1.771-0.474L13.202,16.756L13.202,16.756z"/>
</g>
</svg>
