<?xml version="1.0" encoding="utf-8"?>
<!-- Generator: Adobe Illustrator 16.0.0, SVG Export Plug-In . SVG Version: 6.00 Build 0)  -->
<!DOCTYPE svg PUBLIC "-//W3C//DTD SVG 1.1//EN" "http://www.w3.org/Graphics/SVG/1.1/DTD/svg11.dtd">
<svg version="1.1" id="Layer_1" xmlns="http://www.w3.org/2000/svg" xmlns:xlink="http://www.w3.org/1999/xlink" x="0px" y="0px"
	 width="31.917px" height="31.996px" viewBox="0 0 31.917 31.996" enable-background="new 0 0 31.917 31.996" xml:space="preserve">
<g>
	<g>
		<path fill="#FF2700" d="M25.337,15.886c-0.113-0.516-0.364-0.945-0.751-1.294c-0.388-0.348-0.833-0.553-1.339-0.614
			c-1.603-0.174-4.018-0.261-7.249-0.261s-5.643,0.088-7.236,0.261c-0.513,0.062-0.962,0.267-1.345,0.614
			c-0.384,0.349-0.636,0.778-0.758,1.294c-0.227,1.009-0.339,2.533-0.339,4.571c0,2.072,0.113,3.595,0.339,4.571
			c0.113,0.513,0.364,0.944,0.751,1.293s0.833,0.549,1.339,0.6c1.603,0.184,4.019,0.275,7.249,0.275s5.647-0.092,7.249-0.275
			c0.505-0.051,0.95-0.251,1.332-0.6c0.384-0.349,0.636-0.78,0.758-1.293c0.227-1.01,0.339-2.534,0.339-4.571
			C25.677,18.384,25.564,16.859,25.337,15.886z M11.844,17.205h-1.397v7.431H9.141v-7.431H7.769v-1.228h4.075V17.205L11.844,17.205z
			 M15.371,24.636h-1.162v-0.705c-0.47,0.531-0.915,0.796-1.333,0.796c-0.4,0-0.653-0.159-0.757-0.482
			c-0.069-0.209-0.104-0.526-0.104-0.954v-5.105h1.162v4.753c0,0.279,0.004,0.432,0.013,0.458c0.026,0.183,0.117,0.273,0.274,0.273
			c0.235,0,0.483-0.183,0.745-0.548v-4.937h1.162V24.636L15.371,24.636z M19.812,22.703c0,0.636-0.039,1.071-0.117,1.306
			c-0.149,0.479-0.458,0.718-0.928,0.718c-0.418,0-0.823-0.239-1.215-0.718v0.627H16.39v-8.658h1.163v2.834
			c0.375-0.471,0.779-0.705,1.215-0.705c0.47,0,0.779,0.244,0.928,0.73c0.078,0.226,0.117,0.657,0.117,1.294V22.703z M24.227,21.632
			h-2.338v1.136c0,0.602,0.2,0.901,0.601,0.901c0.287,0,0.461-0.156,0.522-0.47c0.018-0.086,0.026-0.352,0.026-0.797h1.189v0.17
			c0,0.427-0.009,0.68-0.026,0.758c-0.026,0.233-0.117,0.471-0.274,0.705c-0.313,0.462-0.784,0.691-1.411,0.691
			c-0.6,0-1.071-0.222-1.41-0.665c-0.252-0.322-0.379-0.827-0.379-1.515v-2.26c0-0.689,0.122-1.193,0.366-1.516
			c0.34-0.444,0.806-0.667,1.398-0.667c0.583,0,1.045,0.223,1.385,0.667c0.235,0.322,0.353,0.826,0.353,1.516V21.632L24.227,21.632z
			"/>
		<path fill="#FF2700" d="M18.14,19.164c-0.2,0-0.396,0.096-0.587,0.287v3.932c0.191,0.191,0.387,0.286,0.587,0.286
			c0.34,0,0.509-0.291,0.509-0.874v-2.756C18.649,19.455,18.48,19.164,18.14,19.164z"/>
		<path fill="#FF2700" d="M22.477,19.164c-0.392,0-0.587,0.295-0.587,0.887v0.602h1.175v-0.602
			C23.064,19.459,22.869,19.164,22.477,19.164z"/>
		<path fill="#FF2700" d="M11.087,9.001v3.54h1.306v-3.54l1.58-5.211h-1.332l-0.888,3.435L10.826,3.79H9.441
			c0.244,0.731,0.527,1.546,0.849,2.441C10.7,7.435,10.965,8.357,11.087,9.001z"/>
		<path fill="#FF2700" d="M15.724,12.634c0.602,0,1.063-0.223,1.385-0.668c0.244-0.321,0.366-0.835,0.366-1.54V8.139
			c0-0.695-0.122-1.204-0.366-1.528c-0.322-0.443-0.783-0.665-1.385-0.665c-0.583,0-1.04,0.222-1.371,0.665
			c-0.244,0.324-0.366,0.833-0.366,1.528v2.287c0,0.696,0.122,1.21,0.366,1.54C14.684,12.411,15.14,12.634,15.724,12.634z
			 M15.162,7.905c0-0.602,0.187-0.902,0.562-0.902c0.375,0,0.562,0.301,0.562,0.902v2.741c0,0.61-0.187,0.916-0.562,0.916
			c-0.375,0-0.562-0.306-0.562-0.916V7.905z"/>
		<path fill="#FF2700" d="M19.315,12.634c0.436,0,0.885-0.271,1.346-0.811v0.718h1.188V6.023h-1.188V11
			c-0.261,0.375-0.509,0.563-0.745,0.563c-0.157,0-0.248-0.097-0.274-0.289c-0.009-0.017-0.013-0.169-0.013-0.457V6.023H18.44v5.146
			c0,0.443,0.035,0.771,0.104,0.979C18.658,12.472,18.915,12.634,19.315,12.634z"/>
	</g>
</g>
</svg>
