<?xml version="1.0" encoding="utf-8"?>
<!-- Generator: Adobe Illustrator 16.0.0, SVG Export Plug-In . SVG Version: 6.00 Build 0)  -->
<!DOCTYPE svg PUBLIC "-//W3C//DTD SVG 1.1//EN" "http://www.w3.org/Graphics/SVG/1.1/DTD/svg11.dtd">
<svg version="1.1" id="Layer_1" xmlns="http://www.w3.org/2000/svg" xmlns:xlink="http://www.w3.org/1999/xlink" x="0px" y="0px"
	 width="33px" height="32.875px" viewBox="0 0 33 32.875" enable-background="new 0 0 33 32.875" xml:space="preserve">
<g id="Settings">
	<g>
		<path fill="#DBBA2C" d="M32.64,14.572c-0.052-0.457-0.584-0.8-1.044-0.8c-1.488,0-2.809-0.874-3.363-2.226
			c-0.565-1.384-0.201-2.999,0.909-4.017c0.349-0.318,0.392-0.854,0.099-1.225c-0.762-0.967-1.627-1.841-2.573-2.599
			c-0.371-0.297-0.914-0.256-1.234,0.101c-0.968,1.071-2.707,1.47-4.051,0.909c-1.398-0.588-2.28-2.005-2.193-3.525
			c0.028-0.479-0.321-0.894-0.797-0.949c-1.213-0.141-2.437-0.145-3.654-0.01c-0.471,0.052-0.82,0.458-0.804,0.93
			c0.053,1.506-0.839,2.898-2.224,3.465C10.381,5.17,8.654,4.774,7.688,3.712C7.369,3.361,6.834,3.319,6.462,3.608
			C5.489,4.372,4.604,5.247,3.835,6.206C3.535,6.58,3.579,7.12,3.932,7.44c1.131,1.023,1.496,2.652,0.909,4.053
			c-0.561,1.335-1.947,2.195-3.534,2.195c-0.515-0.017-0.882,0.329-0.938,0.798c-0.143,1.22-0.145,2.463-0.007,3.693
			c0.051,0.458,0.6,0.799,1.064,0.799c1.415-0.036,2.772,0.839,3.342,2.225c0.568,1.385,0.203,2.999-0.908,4.017
			c-0.348,0.319-0.392,0.854-0.099,1.225c0.755,0.961,1.621,1.835,2.57,2.599c0.372,0.301,0.914,0.258,1.236-0.098
			c0.972-1.075,2.71-1.473,4.049-0.911c1.401,0.587,2.283,2.004,2.197,3.525c-0.028,0.479,0.323,0.895,0.797,0.949
			c0.621,0.072,1.245,0.108,1.871,0.108c0.594,0,1.188-0.032,1.783-0.099c0.471-0.053,0.82-0.458,0.804-0.93
			c-0.054-1.506,0.839-2.897,2.222-3.464c1.336-0.546,3.056-0.146,4.022,0.915c0.321,0.349,0.852,0.392,1.226,0.103
			c0.972-0.762,1.855-1.636,2.628-2.598c0.299-0.372,0.257-0.914-0.097-1.234c-1.131-1.024-1.498-2.652-0.91-4.052
			c0.552-1.317,1.887-2.202,3.322-2.202l0.201,0.006c0.466,0.038,0.894-0.321,0.951-0.797C32.776,17.044,32.777,15.803,32.64,14.572
			z M16.526,21.827c-2.987,0-5.417-2.43-5.417-5.417s2.43-5.417,5.417-5.417c2.988,0,5.417,2.43,5.417,5.417
			S19.514,21.827,16.526,21.827z"/>
	</g>
</g>
</svg>
