<?xml version="1.0" encoding="utf-8"?>
<!-- Generator: Adobe Illustrator 16.0.0, SVG Export Plug-In . SVG Version: 6.00 Build 0)  -->
<!DOCTYPE svg PUBLIC "-//W3C//DTD SVG 1.1//EN" "http://www.w3.org/Graphics/SVG/1.1/DTD/svg11.dtd">
<svg version="1.1" id="Layer_1" xmlns="http://www.w3.org/2000/svg" xmlns:xlink="http://www.w3.org/1999/xlink" x="0px" y="0px"
	 width="32px" height="32.391px" viewBox="0 0 32 32.391" enable-background="new 0 0 32 32.391" xml:space="preserve">
<g>
	<g>
		<path fill="#DBBA2C" d="M31.724,15.614c-0.024-0.897-0.121-1.771-0.291-2.619l-2.874-1.347l1.383-2.874
			c-0.389-0.752-0.861-1.492-1.419-2.22l-3.165,0.037l0.037-3.202c-0.728-0.533-1.467-0.994-2.219-1.382L20.3,3.39l-1.346-2.874
			c-0.874-0.17-1.747-0.267-2.62-0.291l-1.965,2.51l-2.473-2.001c-0.874,0.219-1.71,0.511-2.511,0.873L8.695,4.699L5.603,3.973
			C4.948,4.554,4.329,5.172,3.748,5.827L4.476,8.92L1.383,9.611c-0.364,0.8-0.655,1.637-0.873,2.51l2.001,2.474L0,16.56
			c0.024,0.874,0.121,1.734,0.291,2.584l2.874,1.382l-1.383,2.838c0.388,0.776,0.861,1.528,1.419,2.255l3.165-0.036L6.33,28.747
			c0.704,0.534,1.443,1.007,2.22,1.419l2.874-1.382l1.346,2.874c0.874,0.17,1.746,0.267,2.62,0.291l1.964-2.51l2.474,2.001
			c0.874-0.219,1.71-0.511,2.51-0.873l0.691-3.093l3.093,0.727c0.655-0.581,1.273-1.213,1.855-1.892l-0.728-3.092l3.093-0.691
			c0.364-0.776,0.654-1.601,0.873-2.475l-2.001-2.473L31.724,15.614z M22.029,22.253c-1.71,1.711-3.766,2.565-6.167,2.565
			c-2.401,0-4.456-0.854-6.167-2.565c-1.709-1.71-2.564-3.765-2.564-6.166s0.855-4.456,2.564-6.166
			c1.71-1.711,3.766-2.565,6.167-2.565c2.401,0,4.457,0.854,6.167,2.565c1.709,1.71,2.564,3.765,2.564,6.166
			S23.738,20.543,22.029,22.253z"/>
	</g>
</g>
<path fill="#DBB92C" d="M10.151,16.968C10.051,16.867,10,16.717,10,16.616s0.051-0.251,0.151-0.352l0.703-0.704
	c0.201-0.2,0.502-0.2,0.703,0l0.05,0.051l2.762,2.964c0.101,0.1,0.251,0.1,0.352,0l6.729-6.981h0.05l0,0
	c0.201-0.2,0.502-0.2,0.703,0l0.703,0.704c0.201,0.2,0.201,0.502,0,0.702l0,0l-8.036,8.337c-0.101,0.101-0.201,0.15-0.352,0.15
	c-0.15,0-0.25-0.05-0.352-0.15l-3.917-4.219L10.151,16.968L10.151,16.968z"/>
</svg>
