<?xml version="1.0" encoding="utf-8"?>
<!-- Generator: Adobe Illustrator 16.0.0, SVG Export Plug-In . SVG Version: 6.00 Build 0)  -->
<!DOCTYPE svg PUBLIC "-//W3C//DTD SVG 1.1//EN" "http://www.w3.org/Graphics/SVG/1.1/DTD/svg11.dtd">
<svg version="1.1" id="Layer_1" xmlns="http://www.w3.org/2000/svg" xmlns:xlink="http://www.w3.org/1999/xlink" x="0px" y="0px"
	 width="30.125px" height="26.203px" viewBox="0 0 30.125 26.203" enable-background="new 0 0 30.125 26.203" xml:space="preserve">
<g>
	<g>
		<path fill="#DBBA2C" d="M15.269,0.036c-4.579,0-8.304,3.727-8.304,8.304c0,5.683,7.431,14.025,7.748,14.376
			c0.297,0.332,0.816,0.332,1.112,0c0.316-0.351,7.748-8.693,7.748-14.376C23.572,3.763,19.847,0.036,15.269,0.036z M15.269,12.518
			c-2.304,0-4.178-1.874-4.178-4.178s1.875-4.178,4.178-4.178s4.177,1.874,4.177,4.178S17.572,12.518,15.269,12.518z"/>
	</g>
</g>
<path fill="#DBBA2C" d="M9.079,14.895H5.385L0,26.203h30.076l-5.384-11.309H21.17 M20.49,15.877h3.58l4.449,9.343H1.558l4.449-9.343
	H9.76"/>
</svg>
