<?xml version="1.0" encoding="utf-8"?>
<!-- Generator: Adobe Illustrator 16.0.0, SVG Export Plug-In . SVG Version: 6.00 Build 0)  -->
<!DOCTYPE svg PUBLIC "-//W3C//DTD SVG 1.1//EN" "http://www.w3.org/Graphics/SVG/1.1/DTD/svg11.dtd">
<svg version="1.1" id="Layer_1" xmlns="http://www.w3.org/2000/svg" xmlns:xlink="http://www.w3.org/1999/xlink" x="0px" y="0px"
	 width="11.042px" height="10.999px" viewBox="0 0 11.042 10.999" enable-background="new 0 0 11.042 10.999" xml:space="preserve">
<g>
	<g fill="#206dc4">
		<path d="M8.968,4.948L5.054,1.034c-0.09-0.091-0.211-0.141-0.34-0.141c-0.128,0-0.25,0.05-0.34,0.141L4.085,1.322
			c-0.188,0.188-0.188,0.493,0,0.681l3.287,3.286L4.082,8.58C3.991,8.671,3.941,8.792,3.941,8.919c0,0.13,0.05,0.25,0.141,0.341
			L4.37,9.548C4.46,9.639,4.582,9.689,4.71,9.689c0.129,0,0.25-0.051,0.341-0.142l3.917-3.917c0.091-0.092,0.14-0.213,0.14-0.341
			C9.108,5.16,9.059,5.039,8.968,4.948z"/>
	</g>
</g>
</svg>
