<?xml version="1.0" encoding="utf-8"?>
<!-- Generator: Adobe Illustrator 16.0.0, SVG Export Plug-In . SVG Version: 6.00 Build 0)  -->
<!DOCTYPE svg PUBLIC "-//W3C//DTD SVG 1.1//EN" "http://www.w3.org/Graphics/SVG/1.1/DTD/svg11.dtd">
<svg version="1.1" id="Layer_1" xmlns="http://www.w3.org/2000/svg" xmlns:xlink="http://www.w3.org/1999/xlink" x="0px" y="0px"
	 width="27.576px" height="19px" viewBox="0 0 27.576 19" enable-background="new 0 0 27.576 19" xml:space="preserve">
<g>
	<path fill="#DBBA2C" d="M0,16.721C0,17.979,0.774,19,1.724,19h24.129c0.952,0,1.724-1.021,1.724-2.279v-9.43H0V16.721z
		 M9.031,16.363H2.984v-1.042h6.047V16.363z M22.625,13.104c0.943,0,1.708,0.765,1.708,1.709c0,0.943-0.765,1.708-1.708,1.708
		s-1.708-0.765-1.708-1.708C20.917,13.868,21.682,13.104,22.625,13.104z M2.917,13.312H12v1.042H2.917V13.312z"/>
	<path fill="#DBBA2C" d="M25.853,0H1.724C0.774,0,0,0.774,0,1.724v1.318V3.28h27.576V3.042V1.724C27.576,0.774,26.804,0,25.853,0z"
		/>
</g>
</svg>
