<?xml version="1.0" encoding="utf-8"?>
<!-- Generator: Adobe Illustrator 16.0.0, SVG Export Plug-In . SVG Version: 6.00 Build 0)  -->
<!DOCTYPE svg PUBLIC "-//W3C//DTD SVG 1.1//EN" "http://www.w3.org/Graphics/SVG/1.1/DTD/svg11.dtd">
<svg version="1.1" id="Layer_1" xmlns="http://www.w3.org/2000/svg" xmlns:xlink="http://www.w3.org/1999/xlink" x="0px" y="0px"
	 width="96px" height="96.5px" viewBox="0 0 96 96.5" enable-background="new 0 0 96 96.5" xml:space="preserve">
<g>
	<g>
		<path fill="#E5E5E5" d="M71.012,33.469c-1.271-1.243-2.804-1.867-4.6-1.867H60.72l-1.296-3.384
			c-0.322-0.813-0.91-1.515-1.766-2.103c-0.856-0.591-1.732-0.885-2.631-0.885h-13.01c-0.899,0-1.776,0.294-2.632,0.885
			c-0.856,0.588-1.443,1.29-1.766,2.103l-1.296,3.384H30.63c-1.796,0-3.329,0.624-4.599,1.867c-1.271,1.246-1.906,2.747-1.906,4.506
			v22.305c0,1.758,0.636,3.261,1.906,4.504c1.271,1.245,2.803,1.867,4.599,1.867h35.781c1.796,0,3.329-0.622,4.6-1.867
			c1.27-1.243,1.905-2.746,1.905-4.504V37.975C72.917,36.216,72.281,34.715,71.012,33.469z M56.563,57.005
			c-2.227,2.183-4.908,3.274-8.042,3.274c-3.135,0-5.815-1.092-8.043-3.274c-2.229-2.181-3.342-4.809-3.342-7.878
			c0-3.07,1.114-5.696,3.342-7.878c2.227-2.183,4.908-3.272,8.043-3.272c3.134,0,5.815,1.091,8.042,3.272
			c2.229,2.182,3.342,4.808,3.342,7.878C59.906,52.196,58.792,54.823,56.563,57.005z"/>
		<path fill="#E5E5E5" d="M48.521,41.957c-2.017,0-3.74,0.702-5.172,2.104c-1.432,1.402-2.147,3.091-2.147,5.065
			s0.715,3.663,2.147,5.064c1.432,1.402,3.155,2.104,5.172,2.104c2.016,0,3.739-0.701,5.171-2.104
			c1.432-1.401,2.146-3.09,2.146-5.064s-0.715-3.663-2.146-5.065C52.261,42.659,50.537,41.957,48.521,41.957z"/>
	</g>
</g>
</svg>
